# xmcd
#
# Track frame offsets: 
#        151
#        12412
#        30047
#        44050
#        63411
#        77360
#        91571
#        108746
#        126143
#        141968
#        160121
#        180570
#
# Disc length: 2651 seconds
#
# Revision: 1
# Processed by: cddbd v1.5.2PL0 Copyright (c) Steve Scherf et al.
# Submitted via: ExactAudioCopy v0.95a5
#
DISCID=8e0a590c
DTITLE=黑鸭子 - 流行的经典
DYEAR=2003
DGENRE=Pop
TTITLE0=草原牧歌
TTITLE1=一剪梅
TTITLE2=走过咖啡屋
TTITLE3=垄上行
TTITLE4=踏浪
TTITLE5=万水千山总是情
TTITLE6=再回首
TTITLE7=爱在深秋
TTITLE8=大约在冬季
TTITLE9=冬季到台北来看雨
TTITLE10=你看你看月亮的脸
TTITLE11=羞答答的玫瑰静悄悄的开
EXTD=
EXTT0=
EXTT1=
EXTT2=
EXTT3=
EXTT4=
EXTT5=
EXTT6=
EXTT7=
EXTT8=
EXTT9=
EXTT10=
EXTT11=
PLAYORDER=
